<?xml version="1.0" standalone="no"?>
<!DOCTYPE svg PUBLIC "-//W3C//DTD SVG 20010904//EN"
 "http://www.w3.org/TR/2001/REC-SVG-20010904/DTD/svg10.dtd">
<svg version="1.0" xmlns="http://www.w3.org/2000/svg"
 width="512.000000pt" height="512.000000pt" viewBox="0 0 512.000000 512.000000"
 preserveAspectRatio="xMidYMid meet">
<metadata>
Created by potrace 1.11, written by Peter Selinger 2001-2013
</metadata>
<g transform="translate(0.000000,512.000000) scale(0.100000,-0.100000)"
fill="#000000" stroke="none">
<path d="M2429 4873 c-30 -7 -61 -16 -69 -20 -8 -3 -17 -7 -20 -7 -23 -4 -125
-73 -167 -112 -47 -45 -119 -142 -151 -205 -21 -40 -55 -80 -72 -83 -8 -2 -26
-8 -40 -13 -58 -24 -255 -94 -269 -96 -41 -7 -41 -5 -41 -365 0 -389 1 -397
71 -434 32 -17 80 -18 886 -18 565 0 861 3 879 10 36 14 73 58 79 95 3 17 4
180 3 364 l-3 334 -110 39 c-60 21 -146 51 -189 66 l-79 27 -82 125 c-109 165
-191 234 -335 282 -79 25 -213 31 -291 11z m243 -308 c91 -44 142 -124 153
-240 1 -5 -4 -34 -11 -63 -37 -169 -221 -254 -381 -176 -157 76 -196 283 -79
419 15 17 28 25 36 20 8 -5 11 -4 7 2 -10 15 34 41 94 57 58 14 128 7 181 -19z"/>
<path d="M1000 4304 c-161 -43 -301 -187 -346 -357 -11 -43 -14 -334 -14
-1723 0 -1605 1 -1674 19 -1726 27 -79 54 -128 98 -174 56 -62 125 -110 185
-130 29 -10 60 -20 68 -23 8 -3 699 -7 1535 -8 1659 -3 1571 -6 1687 53 51 26
168 131 168 151 0 6 4 13 8 15 12 5 50 98 62 152 14 65 14 3310 -1 3392 -23
128 -114 258 -228 325 -33 20 -57 40 -53 44 4 5 2 5 -5 2 -6 -4 -35 -1 -65 7
-35 9 -117 14 -245 15 l-193 2 0 -241 0 -240 160 0 160 0 0 -1600 0 -1600
-1440 0 -1440 0 0 1600 0 1600 160 0 160 0 0 240 0 241 -197 -2 c-115 -2 -217
-8 -243 -15z"/>
<path d="M2728 2273 l-508 -508 -168 168 c-92 92 -170 167 -174 167 -3 0 -81
-75 -173 -167 l-167 -166 342 -342 343 -343 679 680 680 680 -169 169 c-92 93
-170 169 -173 169 -3 0 -233 -228 -512 -507z"/>
</g>
</svg>
